<?xml version="1.0" encoding="iso-8859-1"?>
<!-- Generator: Adobe Illustrator 19.0.0, SVG Export Plug-In . SVG Version: 6.00 Build 0)  -->
<svg xmlns="http://www.w3.org/2000/svg" xmlns:xlink="http://www.w3.org/1999/xlink" version="1.1" id="Layer_1" x="0px" y="0px" viewBox="0 0 512 512" style="enable-background:new 0 0 512 512;" xml:space="preserve">
<path style="fill:#00C3FF;" d="M397.094,187.591c-4.224,0-8.371,0.31-12.467,0.786C360.284,142.171,311.855,110.63,256,110.63  s-104.284,31.541-128.627,77.746c-4.096-0.477-8.242-0.786-12.467-0.786c-59.034,0-106.889,47.855-106.889,106.889  S55.872,401.37,114.906,401.37c24.323,0,257.865,0,282.188,0c59.034,0,106.889-47.855,106.889-106.889  S456.128,187.591,397.094,187.591z"/>
<path style="fill:#00AAF0;" d="M375.716,367.165H194.967c-58.782,0-108.901-46.14-109.972-104.911  c-0.526-28.857,10.477-55.076,28.595-74.597C54.361,188.38,6.713,237.216,8.044,296.922C9.353,355.586,59.733,401.37,118.412,401.37  h257.304c9.446,0,17.102-7.656,17.102-17.102l0,0C392.818,374.821,385.162,367.165,375.716,367.165z"/>
<path d="M397.094,179.574c-2.556,0-5.197,0.104-7.982,0.315c-27.347-47.805-77.859-77.276-133.111-77.276  s-105.765,29.47-133.111,77.276c-2.786-0.212-5.427-0.315-7.982-0.315C51.546,179.574,0,231.12,0,294.48  s51.546,114.906,114.906,114.906h282.188C460.454,409.386,512,357.84,512,294.48S460.454,179.574,397.094,179.574z M397.094,393.353  H114.906c-54.519,0-98.873-44.354-98.873-98.873s44.354-98.873,98.873-98.873c3.529,0,7.304,0.239,11.54,0.732  c3.292,0.381,6.475-1.297,8.019-4.226c23.874-45.316,70.443-73.466,121.535-73.466s97.662,28.15,121.535,73.466  c1.543,2.931,4.732,4.611,8.019,4.226c4.236-0.493,8.01-0.732,11.54-0.732c54.519,0,98.873,44.354,98.873,98.873  S451.613,393.353,397.094,393.353z"/>
<path d="M256,152.852c35.353,0,67.854,17.801,86.942,47.618c1.531,2.391,4.117,3.696,6.76,3.696c1.479,0,2.976-0.409,4.314-1.266  c3.729-2.387,4.816-7.345,2.43-11.074c-22.049-34.445-59.598-55.008-100.445-55.008c-12.521,0-24.858,1.935-36.668,5.75  c-4.213,1.361-6.525,5.879-5.164,10.092c1.361,4.213,5.878,6.523,10.092,5.164C234.476,154.525,245.155,152.852,256,152.852z"/>
<path d="M420.845,217.333c-6.153-1.893-12.548-3.042-19.009-3.417c-4.407-0.261-8.211,3.118-8.468,7.539s3.118,8.211,7.539,8.468  c5.178,0.3,10.301,1.222,15.225,2.735c0.785,0.242,1.579,0.356,2.359,0.356c3.427,0,6.599-2.216,7.66-5.662  C427.452,223.12,425.077,218.634,420.845,217.333z"/>
<path d="M449.364,232.992c-3.373-2.869-8.433-2.462-11.3,0.911c-2.87,3.372-2.462,8.431,0.911,11.301  c14.481,12.321,22.788,30.282,22.788,49.276c0,4.427,3.589,8.017,8.017,8.017s8.017-3.589,8.017-8.017  C477.795,270.777,467.432,248.365,449.364,232.992z"/>
<path d="M114.906,213.779c-15.159,0-29.935,4.23-42.733,12.23c-3.754,2.347-4.894,7.294-2.547,11.048  c1.521,2.432,4.133,3.767,6.806,3.767c1.452,0,2.92-0.394,4.242-1.221c10.245-6.405,22.082-9.791,34.232-9.791  c4.427,0,8.017-3.589,8.017-8.017S119.333,213.779,114.906,213.779z"/>
<path d="M284.189,197.088c-4.201-1.399-8.739,0.87-10.141,5.071l-51.307,153.921c-1.4,4.2,0.87,8.74,5.071,10.141  c0.841,0.28,1.695,0.414,2.536,0.414c3.356,0,6.484-2.125,7.604-5.483L289.26,207.23  C290.659,203.028,288.389,198.488,284.189,197.088z"/>
<path d="M201.81,224.678c-3.131-3.131-8.207-3.131-11.337,0l-51.307,51.307c-3.131,3.131-3.131,8.207,0,11.337l51.307,51.307  c1.565,1.565,3.617,2.348,5.668,2.348s4.103-0.782,5.668-2.348c3.131-3.131,3.131-8.207,0-11.337l-45.639-45.639l45.639-45.639  C204.941,232.885,204.941,227.808,201.81,224.678z"/>
<path d="M321.526,224.678c-3.131-3.131-8.207-3.131-11.337,0c-3.131,3.131-3.131,8.207,0,11.337l45.639,45.639l-45.639,45.639  c-3.131,3.131-3.131,8.207,0,11.337c1.565,1.565,3.617,2.348,5.668,2.348c2.051,0,4.103-0.782,5.668-2.348l51.307-51.307  c3.131-3.131,3.131-8.207,0-11.337L321.526,224.678z"/>
<g>
</g>
<g>
</g>
<g>
</g>
<g>
</g>
<g>
</g>
<g>
</g>
<g>
</g>
<g>
</g>
<g>
</g>
<g>
</g>
<g>
</g>
<g>
</g>
<g>
</g>
<g>
</g>
<g>
</g>
</svg>
